TITLE "I'd Like That"
PERFORMER "XTC"
REM GENRE "Rock"
REM DATE "1999"
REM DISCID 1B049803
FILE "I'd Like That.flac" WAVE
  TRACK 01 AUDIO
    TITLE "I'd Like That"
    ISRC GBCEJ9800092
    INDEX 01 00:00:00
  TRACK 02 AUDIO
    TITLE "I'd Like That (Home Demo)"
    ISRC GBCEJ9900067
    INDEX 00 03:57:42
    INDEX 01 04:00:37
  TRACK 03 AUDIO
    TITLE "How I'd Like That Came To Be"
    ISRC GBCEJ9900068
    INDEX 00 07:44:00
    INDEX 01 07:45:65
